<?xml version="1.0" standalone="no"?>
<!DOCTYPE svg PUBLIC "-//W3C//DTD SVG 20010904//EN"
 "http://www.w3.org/TR/2001/REC-SVG-20010904/DTD/svg10.dtd">
<svg version="1.0" xmlns="http://www.w3.org/2000/svg"
 width="260.000000pt" height="260.000000pt" viewBox="0 0 260.000000 260.000000"
 preserveAspectRatio="xMidYMid meet">
<metadata>
Created by potrace 1.14, written by Peter Selinger 2001-2017
</metadata>
<g transform="translate(0.000000,260.000000) scale(0.100000,-0.100000)"
fill="#000000" stroke="none">
<path d="M995 2446 c-19 -14 -20 -32 -20 -425 -1 -225 -3 -413 -7 -416 -4 -5
-237 186 -438 359 -41 35 -87 66 -99 66 -6 0 -20 -9 -30 -19 -35 -35 -21 -55
124 -176 33 -27 71 -60 85 -71 14 -12 86 -73 160 -134 74 -62 150 -125 167
-140 23 -19 34 -38 37 -63 5 -40 -9 -57 -27 -35 -7 8 -93 82 -192 164 -99 82
-182 151 -185 154 -3 3 -42 36 -86 73 -85 69 -124 84 -124 46 0 -24 -1 -23
115 -119 50 -41 92 -77 95 -80 3 -3 86 -72 185 -154 221 -183 222 -184 219
-227 -1 -19 -3 -35 -3 -37 -2 -5 -28 12 -72 50 -24 20 -64 53 -89 73 -49 41
-85 71 -270 230 -69 59 -142 119 -164 133 -36 25 -39 25 -52 8 -16 -22 -7 -39
47 -83 21 -17 60 -49 86 -71 50 -42 424 -356 482 -405 26 -21 33 -36 35 -67 3
-47 -5 -49 -48 -12 -18 15 -54 45 -81 67 -27 22 -79 65 -115 96 -319 271 -504
420 -518 417 -23 -4 -27 -35 -6 -55 9 -9 64 -57 123 -106 58 -49 115 -96 126
-106 11 -9 90 -75 175 -146 85 -71 166 -139 180 -151 14 -12 57 -49 95 -82 63
-53 71 -64 70 -94 -2 -49 -7 -47 -165 89 -25 22 -198 165 -285 238 -27 22 -53
45 -59 50 -6 6 -93 79 -194 163 -196 164 -214 173 -241 118 -13 -29 -13 -31
31 -70 24 -23 55 -50 68 -61 49 -40 215 -180 220 -185 3 -3 30 -26 60 -50 31
-25 126 -105 213 -179 121 -102 156 -138 152 -152 -3 -9 -8 -26 -10 -36 -3
-10 -16 -63 -30 -118 -30 -119 -31 -141 -7 -154 10 -5 129 -10 267 -10 136 -1
251 -4 254 -7 3 -3 6 -87 6 -188 0 -196 5 -216 50 -216 45 0 50 20 50 219 l0
186 263 5 c278 5 281 6 282 53 0 9 -16 76 -35 149 -19 72 -32 135 -29 140 3 4
157 135 342 290 401 334 412 344 407 370 -11 57 -54 58 -122 2 -27 -21 -50
-41 -53 -44 -3 -4 -176 -150 -385 -324 -209 -175 -425 -356 -480 -403 -145
-123 -199 -146 -294 -123 -99 24 -174 118 -173 219 0 98 23 133 167 251 50 41
92 77 95 80 3 3 73 62 155 130 83 69 152 127 155 130 3 4 61 53 130 110 69 58
127 107 130 110 3 3 71 61 153 129 81 68 151 131 156 140 12 22 -4 58 -29 66
-28 9 -26 10 -304 -224 -131 -111 -241 -199 -245 -196 -3 4 -6 191 -6 417 0
393 -1 410 -20 424 -24 18 -36 18 -60 0 -19 -14 -20 -31 -20 -475 l0 -460 -24
-25 c-14 -14 -28 -26 -33 -26 -4 0 -8 199 -8 443 0 465 -2 487 -43 471 -21 -8
-19 43 -19 -509 l-1 -459 -28 -28 c-15 -15 -31 -28 -36 -28 -4 0 -8 210 -7
468 0 257 -3 475 -8 485 -5 9 -15 17 -23 17 -8 0 -18 -8 -23 -17 -5 -10 -8
-241 -8 -513 l1 -495 -27 -28 c-14 -15 -31 -27 -36 -27 -5 0 -9 221 -10 543 0
646 2 583 -18 591 -43 17 -43 15 -44 -607 l0 -592 -27 -22 c-14 -13 -29 -23
-32 -23 -3 0 -6 293 -7 651 -1 623 -2 652 -19 665 -24 18 -36 18 -60 0z m-35
-1707 c47 -40 87 -76 88 -80 2 -5 -48 -9 -111 -9 l-115 0 10 43 c17 81 29 117
36 117 4 0 46 -32 92 -71z m807 -5 c15 -55 17 -77 9 -80 -7 -3 -61 -3 -121 -2
l-108 3 94 78 c51 42 96 77 100 77 3 0 15 -34 26 -76z"/>
<path d="M2184 1832 c-16 -15 -52 -45 -79 -67 -28 -22 -165 -137 -305 -255
-140 -118 -336 -282 -435 -365 -208 -173 -226 -190 -219 -209 9 -25 31 -25 61
-3 31 24 379 315 428 358 17 15 161 136 320 269 160 133 291 250 293 260 2 10
-5 23 -15 29 -15 8 -25 4 -49 -17z"/>
<path d="M2239 1702 c-13 -9 -96 -77 -184 -150 -88 -74 -180 -151 -204 -171
-24 -20 -49 -41 -55 -46 -6 -6 -85 -73 -176 -149 -91 -76 -176 -148 -190 -160
-14 -11 -76 -63 -138 -115 -61 -52 -112 -99 -112 -105 0 -13 20 -36 31 -36 7
0 57 41 284 231 11 9 110 93 221 186 111 92 217 182 237 198 19 17 101 84 180
150 154 127 179 158 148 174 -13 7 -25 5 -42 -7z"/>
<path d="M2350 1628 c-14 -13 -52 -46 -85 -73 -33 -28 -65 -54 -71 -60 -6 -5
-33 -28 -60 -50 -27 -22 -64 -54 -84 -71 -19 -17 -147 -124 -285 -239 -137
-114 -275 -229 -305 -255 -30 -27 -74 -63 -97 -81 -50 -40 -56 -52 -39 -74 17
-24 33 -14 159 93 56 48 172 146 257 217 85 71 164 137 175 147 11 9 54 45 95
79 99 82 142 118 285 239 85 72 120 108 120 123 0 31 -34 33 -65 5z"/>
</g>
</svg>
