<svg xmlns="http://www.w3.org/2000/svg" width="77.765" height="12.471" viewBox="0 0 77.765 12.471">
  <path id="Path_4497" data-name="Path 4497" d="M6.145.3A.525.525,0,0,1,7.1.3L8.633,3.633a.525.525,0,0,0,.415.3l3.64.432a.525.525,0,0,1,.294.906L10.291,7.761a.524.524,0,0,0-.158.487l.714,3.595a.525.525,0,0,1-.771.56l-3.2-1.79a.525.525,0,0,0-.512,0l-3.2,1.79a.525.525,0,0,1-.771-.56L3.11,8.248a.525.525,0,0,0-.158-.487L.261,5.272a.525.525,0,0,1,.294-.906L4.2,3.934a.525.525,0,0,0,.415-.3ZM22.321.3a.525.525,0,0,1,.953,0l1.535,3.328a.525.525,0,0,0,.415.3l3.64.432a.525.525,0,0,1,.294.906L26.467,7.761a.525.525,0,0,0-.158.487l.714,3.595a.525.525,0,0,1-.771.56l-3.2-1.79a.525.525,0,0,0-.512,0l-3.2,1.79a.525.525,0,0,1-.771-.56l.714-3.595a.525.525,0,0,0-.158-.487L16.438,5.272a.525.525,0,0,1,.294-.906l3.64-.432a.525.525,0,0,0,.415-.3ZM38.5.3a.525.525,0,0,1,.953,0l1.535,3.328a.525.525,0,0,0,.415.3l3.64.432a.525.525,0,0,1,.294.906L42.644,7.761a.525.525,0,0,0-.158.487l.714,3.595a.525.525,0,0,1-.771.56l-3.2-1.79a.525.525,0,0,0-.512,0l-3.2,1.79a.525.525,0,0,1-.771-.56l.714-3.595a.525.525,0,0,0-.158-.487L32.614,5.272a.525.525,0,0,1,.294-.906l3.64-.432a.525.525,0,0,0,.415-.3ZM54.674.3a.525.525,0,0,1,.953,0l1.535,3.328a.525.525,0,0,0,.415.3l3.64.432a.525.525,0,0,1,.294.906L58.82,7.761a.525.525,0,0,0-.158.487l.714,3.595a.525.525,0,0,1-.771.56l-3.2-1.79a.525.525,0,0,0-.512,0L51.7,12.4a.525.525,0,0,1-.771-.56l.714-3.595a.524.524,0,0,0-.158-.487L48.79,5.272a.525.525,0,0,1,.294-.906l3.64-.432a.525.525,0,0,0,.415-.3ZM70.851.3A.525.525,0,0,1,71.8.3l1.535,3.328a.525.525,0,0,0,.415.3l3.64.432a.525.525,0,0,1,.294.906L75,7.761a.525.525,0,0,0-.158.487l.714,3.595a.525.525,0,0,1-.771.56l-3.2-1.79a.525.525,0,0,0-.513,0l-3.2,1.79a.525.525,0,0,1-.771-.56l.714-3.595a.525.525,0,0,0-.158-.487L64.967,5.272a.525.525,0,0,1,.294-.906l3.64-.432a.524.524,0,0,0,.415-.3Z" transform="translate(-0.092)" fill="#ff9d0b"/>
</svg>
